<mxfile host="65bd71144e">
    <diagram id="yfJ8Jdgor_elyh1SWQQz" name="Page-1">
        <mxGraphModel dx="8507" dy="4207" grid="1" gridSize="10" guides="1" tooltips="1" connect="1" arrows="1" fold="1" page="1" pageScale="1" pageWidth="850" pageHeight="1100" math="0" shadow="0">
            <root>
                <mxCell id="0"/>
                <mxCell id="1" parent="0"/>
                <mxCell id="3" value="&lt;font style=&quot;font-size: 72px;&quot;&gt;Steps to connect to the DB to add a data on db&lt;/font&gt;" style="rounded=0;whiteSpace=wrap;html=1;fontSize=36;strokeColor=none;fillColor=none;" vertex="1" parent="1">
                    <mxGeometry x="-1215" y="-180" width="1390" height="380" as="geometry"/>
                </mxCell>
                <mxCell id="6" value="&lt;font style=&quot;font-size: 72px;&quot;&gt;&lt;u style=&quot;&quot;&gt;&lt;i style=&quot;&quot;&gt;Steps&lt;/i&gt;&lt;/u&gt;&lt;/font&gt;" style="text;html=1;strokeColor=none;fillColor=none;align=center;verticalAlign=middle;whiteSpace=wrap;rounded=0;fontSize=36;" vertex="1" parent="1">
                    <mxGeometry x="-930" y="80" width="780" height="150" as="geometry"/>
                </mxCell>
                <mxCell id="7" value="&lt;font style=&quot;font-size: 72px;&quot;&gt;&lt;span style=&quot;text-align: center;&quot;&gt;1.Connect to database (create a db connect using mongose)&lt;/span&gt;&lt;br style=&quot;text-align: center;&quot;&gt;&lt;span style=&quot;text-align: center;&quot;&gt;2.Import in the app.js&amp;nbsp;&lt;/span&gt;&lt;br style=&quot;text-align: center;&quot;&gt;&lt;br style=&quot;text-align: center;&quot;&gt;&lt;span style=&quot;text-align: center;&quot;&gt;3.create a schema and model&amp;nbsp;&lt;/span&gt;&lt;br style=&quot;text-align: center;&quot;&gt;&lt;br style=&quot;text-align: center;&quot;&gt;&lt;span style=&quot;text-align: center;&quot;&gt;4.create a api and route handler to pass adata&amp;nbsp;&lt;/span&gt;&lt;/font&gt;" style="text;strokeColor=none;fillColor=none;align=left;verticalAlign=middle;spacingLeft=4;spacingRight=4;overflow=hidden;points=[[0,0.5],[1,0.5]];portConstraint=eastwest;rotatable=0;whiteSpace=wrap;html=1;fontSize=36;" vertex="1" parent="1">
                    <mxGeometry x="-1270" y="150" width="1690" height="770" as="geometry"/>
                </mxCell>
                <mxCell id="9" value="" style="rounded=1;whiteSpace=wrap;html=1;fontSize=36;fillColor=none;" vertex="1" parent="1">
                    <mxGeometry x="-1570" y="200" width="2070" height="650" as="geometry"/>
                </mxCell>
                <mxCell id="12" value="&lt;div style=&quot;color: rgb(218, 218, 218); background-color: rgb(30, 30, 30); font-family: Consolas, &amp;quot;Courier New&amp;quot;, monospace; font-weight: normal; line-height: 19px;&quot;&gt;&lt;div style=&quot;&quot;&gt;&lt;font style=&quot;font-size: 48px;&quot;&gt;&lt;span style=&quot;color: rgb(86, 156, 214);&quot;&gt;const&lt;/span&gt;&lt;span style=&quot;color: rgb(218, 218, 218);&quot;&gt; &lt;/span&gt;&lt;span style=&quot;color: rgb(78, 201, 176);&quot;&gt;mongoose&lt;/span&gt;&lt;span style=&quot;color: rgb(218, 218, 218);&quot;&gt; &lt;/span&gt;&lt;span style=&quot;color: rgb(180, 180, 180);&quot;&gt;=&lt;/span&gt;&lt;span style=&quot;color: rgb(218, 218, 218);&quot;&gt; &lt;/span&gt;&lt;span style=&quot;color: rgb(220, 220, 170);&quot;&gt;require&lt;/span&gt;&lt;span style=&quot;color: rgb(218, 218, 218);&quot;&gt;(&lt;/span&gt;&lt;span style=&quot;color: rgb(232, 201, 187);&quot;&gt;&quot;&lt;/span&gt;&lt;span style=&quot;color: rgb(206, 145, 120);&quot;&gt;mongoose&lt;/span&gt;&lt;span style=&quot;color: rgb(232, 201, 187);&quot;&gt;&quot;&lt;/span&gt;&lt;span style=&quot;color: rgb(218, 218, 218);&quot;&gt;)&lt;/span&gt;&lt;span style=&quot;color: rgb(180, 180, 180);&quot;&gt;;&lt;/span&gt;&lt;/font&gt;&lt;/div&gt;&lt;font size=&quot;3&quot;&gt;&lt;br&gt;&lt;/font&gt;&lt;div style=&quot;&quot;&gt;&lt;font size=&quot;3&quot;&gt;&lt;span style=&quot;color: #569cd6;&quot;&gt;const&lt;/span&gt;&lt;span style=&quot;color: #dadada;&quot;&gt; &lt;/span&gt;&lt;span style=&quot;color: #dcdcaa;&quot;&gt;connectDB&lt;/span&gt;&lt;span style=&quot;color: #dadada;&quot;&gt; &lt;/span&gt;&lt;span style=&quot;color: #b4b4b4;&quot;&gt;=&lt;/span&gt;&lt;span style=&quot;color: #dadada;&quot;&gt; &lt;/span&gt;&lt;span style=&quot;color: #569cd6;&quot;&gt;async&lt;/span&gt;&lt;span style=&quot;color: #dadada;&quot;&gt; &lt;/span&gt;&lt;span style=&quot;color: #b4b4b4;&quot;&gt;()&lt;/span&gt;&lt;span style=&quot;color: #dadada;&quot;&gt; &lt;/span&gt;&lt;span style=&quot;color: #569cd6;&quot;&gt;=&amp;gt;&lt;/span&gt;&lt;span style=&quot;color: #dadada;&quot;&gt; &lt;/span&gt;&lt;span style=&quot;color: #b4b4b4;&quot;&gt;{&lt;/span&gt;&lt;/font&gt;&lt;/div&gt;&lt;div style=&quot;&quot;&gt;&lt;font size=&quot;3&quot;&gt;&lt;span style=&quot;color: #dadada;&quot;&gt;&amp;nbsp; &lt;/span&gt;&lt;span style=&quot;color: #d8a0df;&quot;&gt;await&lt;/span&gt;&lt;span style=&quot;color: #dadada;&quot;&gt; &lt;/span&gt;&lt;span style=&quot;color: #4ec9b0;&quot;&gt;mongoose&lt;/span&gt;&lt;span style=&quot;color: #b4b4b4;&quot;&gt;.&lt;/span&gt;&lt;span style=&quot;color: #dcdcaa;&quot;&gt;connect&lt;/span&gt;&lt;span style=&quot;color: #dadada;&quot;&gt;(&lt;/span&gt;&lt;/font&gt;&lt;/div&gt;&lt;div style=&quot;&quot;&gt;&lt;font size=&quot;3&quot;&gt;&lt;span style=&quot;color: #dadada;&quot;&gt;&amp;nbsp; &amp;nbsp; &lt;/span&gt;&lt;span style=&quot;color: #e8c9bb;&quot;&gt;&quot;&lt;/span&gt;&lt;span style=&quot;color: #ce9178;&quot;&gt;mongodb+srv://rohitkumarme2618:P7tGknYjQYE0nDWv@namastenode.tbhzq.mongodb.net/devTinder&lt;/span&gt;&lt;span style=&quot;color: #e8c9bb;&quot;&gt;&quot;&lt;/span&gt;&lt;/font&gt;&lt;/div&gt;&lt;div style=&quot;&quot;&gt;&lt;font size=&quot;3&quot;&gt;&lt;span style=&quot;color: #dadada;&quot;&gt;&amp;nbsp; )&lt;/span&gt;&lt;span style=&quot;color: #b4b4b4;&quot;&gt;;&lt;/span&gt;&lt;/font&gt;&lt;/div&gt;&lt;div style=&quot;&quot;&gt;&lt;span style=&quot;color: #b4b4b4;&quot;&gt;&lt;font size=&quot;3&quot;&gt;};&lt;/font&gt;&lt;/span&gt;&lt;/div&gt;&lt;font size=&quot;3&quot;&gt;&lt;br&gt;&lt;/font&gt;&lt;div style=&quot;&quot;&gt;&lt;font size=&quot;3&quot;&gt;&lt;span style=&quot;color: #c8c8c8;&quot;&gt;module&lt;/span&gt;&lt;span style=&quot;color: #b4b4b4;&quot;&gt;.&lt;/span&gt;&lt;span style=&quot;color: #dcdcaa;&quot;&gt;exports&lt;/span&gt;&lt;span style=&quot;color: #dadada;&quot;&gt; &lt;/span&gt;&lt;span style=&quot;color: #b4b4b4;&quot;&gt;=&lt;/span&gt;&lt;span style=&quot;color: #dadada;&quot;&gt; &lt;/span&gt;&lt;span style=&quot;color: #dcdcaa;&quot;&gt;connectDB&lt;/span&gt;&lt;span style=&quot;color: #b4b4b4;&quot;&gt;;&lt;/span&gt;&lt;/font&gt;&lt;/div&gt;&lt;br&gt;&lt;/div&gt;" style="text;whiteSpace=wrap;html=1;fontSize=72;" vertex="1" parent="1">
                    <mxGeometry x="-1660" y="980" width="990" height="380" as="geometry"/>
                </mxCell>
                <mxCell id="13" value="config-&amp;gt;database.js&lt;br&gt;" style="text;html=1;strokeColor=none;fillColor=none;align=center;verticalAlign=middle;whiteSpace=wrap;rounded=0;fontSize=48;" vertex="1" parent="1">
                    <mxGeometry x="-1590" y="930" width="470" height="40" as="geometry"/>
                </mxCell>
                <mxCell id="14" value="&lt;div style=&quot;color: rgb(218, 218, 218); background-color: rgb(30, 30, 30); font-family: Consolas, &amp;quot;Courier New&amp;quot;, monospace; font-weight: normal; line-height: 19px;&quot;&gt;&lt;div style=&quot;&quot;&gt;&lt;font style=&quot;font-size: 24px;&quot;&gt;&lt;span style=&quot;color: rgb(86, 156, 214);&quot;&gt;const&lt;/span&gt;&lt;span style=&quot;color: rgb(218, 218, 218);&quot;&gt; &lt;/span&gt;&lt;span style=&quot;color: rgb(220, 220, 170);&quot;&gt;express&lt;/span&gt;&lt;span style=&quot;color: rgb(218, 218, 218);&quot;&gt; &lt;/span&gt;&lt;span style=&quot;color: rgb(180, 180, 180);&quot;&gt;=&lt;/span&gt;&lt;span style=&quot;color: rgb(218, 218, 218);&quot;&gt; &lt;/span&gt;&lt;span style=&quot;color: rgb(220, 220, 170);&quot;&gt;require&lt;/span&gt;&lt;span style=&quot;color: rgb(218, 218, 218);&quot;&gt;(&lt;/span&gt;&lt;span style=&quot;color: rgb(232, 201, 187);&quot;&gt;&quot;&lt;/span&gt;&lt;span style=&quot;color: rgb(206, 145, 120);&quot;&gt;express&lt;/span&gt;&lt;span style=&quot;color: rgb(232, 201, 187);&quot;&gt;&quot;&lt;/span&gt;&lt;span style=&quot;color: rgb(218, 218, 218);&quot;&gt;)&lt;/span&gt;&lt;span style=&quot;color: rgb(180, 180, 180);&quot;&gt;;&lt;/span&gt;&lt;/font&gt;&lt;/div&gt;&lt;div style=&quot;&quot;&gt;&lt;font size=&quot;3&quot;&gt;&lt;span style=&quot;color: #569cd6;&quot;&gt;const&lt;/span&gt;&lt;span style=&quot;color: #dadada;&quot;&gt; &lt;/span&gt;&lt;span style=&quot;color: #dcdcaa;&quot;&gt;connectDB&lt;/span&gt;&lt;span style=&quot;color: #dadada;&quot;&gt; &lt;/span&gt;&lt;span style=&quot;color: #b4b4b4;&quot;&gt;=&lt;/span&gt;&lt;span style=&quot;color: #dadada;&quot;&gt; &lt;/span&gt;&lt;span style=&quot;color: #dcdcaa;&quot;&gt;require&lt;/span&gt;&lt;span style=&quot;color: #dadada;&quot;&gt;(&lt;/span&gt;&lt;span style=&quot;color: #e8c9bb;&quot;&gt;&quot;&lt;/span&gt;&lt;span style=&quot;color: #ce9178;&quot;&gt;./config/database&lt;/span&gt;&lt;span style=&quot;color: #e8c9bb;&quot;&gt;&quot;&lt;/span&gt;&lt;span style=&quot;color: #dadada;&quot;&gt;)&lt;/span&gt;&lt;span style=&quot;color: #b4b4b4;&quot;&gt;;&lt;/span&gt;&lt;/font&gt;&lt;/div&gt;&lt;div style=&quot;&quot;&gt;&lt;font size=&quot;3&quot;&gt;&lt;span style=&quot;color: #569cd6;&quot;&gt;const&lt;/span&gt;&lt;span style=&quot;color: #dadada;&quot;&gt; &lt;/span&gt;&lt;span style=&quot;color: #c8c8c8;&quot;&gt;User&lt;/span&gt;&lt;span style=&quot;color: #dadada;&quot;&gt; &lt;/span&gt;&lt;span style=&quot;color: #b4b4b4;&quot;&gt;=&lt;/span&gt;&lt;span style=&quot;color: #dadada;&quot;&gt; &lt;/span&gt;&lt;span style=&quot;color: #dcdcaa;&quot;&gt;require&lt;/span&gt;&lt;span style=&quot;color: #dadada;&quot;&gt;(&lt;/span&gt;&lt;span style=&quot;color: #e8c9bb;&quot;&gt;&quot;&lt;/span&gt;&lt;span style=&quot;color: #ce9178;&quot;&gt;./model/user&lt;/span&gt;&lt;span style=&quot;color: #e8c9bb;&quot;&gt;&quot;&lt;/span&gt;&lt;span style=&quot;color: #dadada;&quot;&gt;)&lt;/span&gt;&lt;span style=&quot;color: #b4b4b4;&quot;&gt;;&lt;/span&gt;&lt;/font&gt;&lt;/div&gt;&lt;div style=&quot;&quot;&gt;&lt;font size=&quot;3&quot;&gt;&lt;span style=&quot;color: #569cd6;&quot;&gt;const&lt;/span&gt;&lt;span style=&quot;color: #dadada;&quot;&gt; &lt;/span&gt;&lt;span style=&quot;color: #c8c8c8;&quot;&gt;app&lt;/span&gt;&lt;span style=&quot;color: #dadada;&quot;&gt; &lt;/span&gt;&lt;span style=&quot;color: #b4b4b4;&quot;&gt;=&lt;/span&gt;&lt;span style=&quot;color: #dadada;&quot;&gt; &lt;/span&gt;&lt;span style=&quot;color: #dcdcaa;&quot;&gt;express&lt;/span&gt;&lt;span style=&quot;color: #dadada;&quot;&gt;()&lt;/span&gt;&lt;span style=&quot;color: #b4b4b4;&quot;&gt;;&lt;/span&gt;&lt;/font&gt;&lt;/div&gt;&lt;font size=&quot;3&quot;&gt;&lt;br&gt;&lt;/font&gt;&lt;div style=&quot;&quot;&gt;&lt;font size=&quot;3&quot;&gt;&lt;span style=&quot;color: #c8c8c8;&quot;&gt;app&lt;/span&gt;&lt;span style=&quot;color: #b4b4b4;&quot;&gt;.&lt;/span&gt;&lt;span style=&quot;color: #dcdcaa;&quot;&gt;post&lt;/span&gt;&lt;span style=&quot;color: #dadada;&quot;&gt;(&lt;/span&gt;&lt;span style=&quot;color: #e8c9bb;&quot;&gt;&quot;&lt;/span&gt;&lt;span style=&quot;color: #ce9178;&quot;&gt;/signup&lt;/span&gt;&lt;span style=&quot;color: #e8c9bb;&quot;&gt;&quot;&lt;/span&gt;&lt;span style=&quot;color: #b4b4b4;&quot;&gt;,&lt;/span&gt;&lt;span style=&quot;color: #dadada;&quot;&gt; &lt;/span&gt;&lt;span style=&quot;color: #569cd6;&quot;&gt;async&lt;/span&gt;&lt;span style=&quot;color: #dadada;&quot;&gt; &lt;/span&gt;&lt;span style=&quot;color: #b4b4b4;&quot;&gt;(&lt;/span&gt;&lt;span style=&quot;color: #9a9a9a;&quot;&gt;req&lt;/span&gt;&lt;span style=&quot;color: #b4b4b4;&quot;&gt;,&lt;/span&gt;&lt;span style=&quot;color: #dadada;&quot;&gt; &lt;/span&gt;&lt;span style=&quot;color: #9a9a9a;&quot;&gt;res&lt;/span&gt;&lt;span style=&quot;color: #b4b4b4;&quot;&gt;)&lt;/span&gt;&lt;span style=&quot;color: #dadada;&quot;&gt; &lt;/span&gt;&lt;span style=&quot;color: #569cd6;&quot;&gt;=&amp;gt;&lt;/span&gt;&lt;span style=&quot;color: #dadada;&quot;&gt; &lt;/span&gt;&lt;span style=&quot;color: #b4b4b4;&quot;&gt;{&lt;/span&gt;&lt;/font&gt;&lt;/div&gt;&lt;div style=&quot;&quot;&gt;&lt;font size=&quot;3&quot;&gt;&lt;span style=&quot;color: #dadada;&quot;&gt;&amp;nbsp; &lt;/span&gt;&lt;span style=&quot;color: #569cd6;&quot;&gt;const&lt;/span&gt;&lt;span style=&quot;color: #dadada;&quot;&gt; &lt;/span&gt;&lt;span style=&quot;color: #c8c8c8;&quot;&gt;user&lt;/span&gt;&lt;span style=&quot;color: #dadada;&quot;&gt; &lt;/span&gt;&lt;span style=&quot;color: #b4b4b4;&quot;&gt;=&lt;/span&gt;&lt;span style=&quot;color: #dadada;&quot;&gt; &lt;/span&gt;&lt;span style=&quot;color: #569cd6;&quot;&gt;new&lt;/span&gt;&lt;span style=&quot;color: #dadada;&quot;&gt; &lt;/span&gt;&lt;span style=&quot;color: #dcdcaa;&quot;&gt;User&lt;/span&gt;&lt;span style=&quot;color: #dadada;&quot;&gt;(&lt;/span&gt;&lt;span style=&quot;color: #b4b4b4;&quot;&gt;{&lt;/span&gt;&lt;/font&gt;&lt;/div&gt;&lt;div style=&quot;&quot;&gt;&lt;font size=&quot;3&quot;&gt;&lt;span style=&quot;color: #dadada;&quot;&gt;&amp;nbsp; &amp;nbsp; &lt;/span&gt;&lt;span style=&quot;color: #dadada;&quot;&gt;firstName&lt;/span&gt;&lt;span style=&quot;color: #b4b4b4;&quot;&gt;:&lt;/span&gt;&lt;span style=&quot;color: #dadada;&quot;&gt; &lt;/span&gt;&lt;span style=&quot;color: #e8c9bb;&quot;&gt;&quot;&lt;/span&gt;&lt;span style=&quot;color: #ce9178;&quot;&gt;Rohitkumar&lt;/span&gt;&lt;span style=&quot;color: #e8c9bb;&quot;&gt;&quot;&lt;/span&gt;&lt;span style=&quot;color: #b4b4b4;&quot;&gt;,&lt;/span&gt;&lt;/font&gt;&lt;/div&gt;&lt;div style=&quot;&quot;&gt;&lt;font size=&quot;3&quot;&gt;&lt;span style=&quot;color: #dadada;&quot;&gt;&amp;nbsp; &amp;nbsp; &lt;/span&gt;&lt;span style=&quot;color: #dadada;&quot;&gt;lastName&lt;/span&gt;&lt;span style=&quot;color: #b4b4b4;&quot;&gt;:&lt;/span&gt;&lt;span style=&quot;color: #dadada;&quot;&gt; &lt;/span&gt;&lt;span style=&quot;color: #e8c9bb;&quot;&gt;&quot;&lt;/span&gt;&lt;span style=&quot;color: #ce9178;&quot;&gt;Darunde&lt;/span&gt;&lt;span style=&quot;color: #e8c9bb;&quot;&gt;&quot;&lt;/span&gt;&lt;span style=&quot;color: #b4b4b4;&quot;&gt;,&lt;/span&gt;&lt;/font&gt;&lt;/div&gt;&lt;div style=&quot;&quot;&gt;&lt;font size=&quot;3&quot;&gt;&lt;span style=&quot;color: #dadada;&quot;&gt;&amp;nbsp; &amp;nbsp; &lt;/span&gt;&lt;span style=&quot;color: #dadada;&quot;&gt;email&lt;/span&gt;&lt;span style=&quot;color: #b4b4b4;&quot;&gt;:&lt;/span&gt;&lt;span style=&quot;color: #dadada;&quot;&gt; &lt;/span&gt;&lt;span style=&quot;color: #e8c9bb;&quot;&gt;&quot;&lt;/span&gt;&lt;span style=&quot;color: #ce9178;&quot;&gt;rk@gmail.com&lt;/span&gt;&lt;span style=&quot;color: #e8c9bb;&quot;&gt;&quot;&lt;/span&gt;&lt;span style=&quot;color: #b4b4b4;&quot;&gt;,&lt;/span&gt;&lt;/font&gt;&lt;/div&gt;&lt;div style=&quot;&quot;&gt;&lt;font size=&quot;3&quot;&gt;&lt;span style=&quot;color: #dadada;&quot;&gt;&amp;nbsp; &amp;nbsp; &lt;/span&gt;&lt;span style=&quot;color: #dadada;&quot;&gt;password&lt;/span&gt;&lt;span style=&quot;color: #b4b4b4;&quot;&gt;:&lt;/span&gt;&lt;span style=&quot;color: #dadada;&quot;&gt; &lt;/span&gt;&lt;span style=&quot;color: #e8c9bb;&quot;&gt;&quot;&lt;/span&gt;&lt;span style=&quot;color: #ce9178;&quot;&gt;rk@1234&lt;/span&gt;&lt;span style=&quot;color: #e8c9bb;&quot;&gt;&quot;&lt;/span&gt;&lt;span style=&quot;color: #b4b4b4;&quot;&gt;,&lt;/span&gt;&lt;/font&gt;&lt;/div&gt;&lt;div style=&quot;&quot;&gt;&lt;font size=&quot;3&quot;&gt;&lt;span style=&quot;color: #dadada;&quot;&gt;&amp;nbsp; &lt;/span&gt;&lt;span style=&quot;color: #b4b4b4;&quot;&gt;}&lt;/span&gt;&lt;span style=&quot;color: #dadada;&quot;&gt;)&lt;/span&gt;&lt;span style=&quot;color: #b4b4b4;&quot;&gt;;&lt;/span&gt;&lt;/font&gt;&lt;/div&gt;&lt;font size=&quot;3&quot;&gt;&lt;br&gt;&lt;/font&gt;&lt;div style=&quot;&quot;&gt;&lt;font size=&quot;3&quot;&gt;&lt;span style=&quot;color: #dadada;&quot;&gt;&amp;nbsp; &lt;/span&gt;&lt;span style=&quot;color: #d8a0df;&quot;&gt;await&lt;/span&gt;&lt;span style=&quot;color: #dadada;&quot;&gt; &lt;/span&gt;&lt;span style=&quot;color: #c8c8c8;&quot;&gt;user&lt;/span&gt;&lt;span style=&quot;color: #b4b4b4;&quot;&gt;.&lt;/span&gt;&lt;span style=&quot;color: #dcdcaa;&quot;&gt;save&lt;/span&gt;&lt;span style=&quot;color: #dadada;&quot;&gt;()&lt;/span&gt;&lt;span style=&quot;color: #b4b4b4;&quot;&gt;;&lt;/span&gt;&lt;/font&gt;&lt;/div&gt;&lt;div style=&quot;&quot;&gt;&lt;font size=&quot;3&quot;&gt;&lt;span style=&quot;color: #dadada;&quot;&gt;&amp;nbsp; &lt;/span&gt;&lt;span style=&quot;color: #9a9a9a;&quot;&gt;res&lt;/span&gt;&lt;span style=&quot;color: #b4b4b4;&quot;&gt;.&lt;/span&gt;&lt;span style=&quot;color: #dcdcaa;&quot;&gt;send&lt;/span&gt;&lt;span style=&quot;color: #dadada;&quot;&gt;(&lt;/span&gt;&lt;span style=&quot;color: #e8c9bb;&quot;&gt;&quot;&lt;/span&gt;&lt;span style=&quot;color: #ce9178;&quot;&gt;User registered successfully&lt;/span&gt;&lt;span style=&quot;color: #e8c9bb;&quot;&gt;&quot;&lt;/span&gt;&lt;span style=&quot;color: #dadada;&quot;&gt;)&lt;/span&gt;&lt;span style=&quot;color: #b4b4b4;&quot;&gt;;&lt;/span&gt;&lt;/font&gt;&lt;/div&gt;&lt;div style=&quot;&quot;&gt;&lt;font size=&quot;3&quot;&gt;&lt;span style=&quot;color: #b4b4b4;&quot;&gt;}&lt;/span&gt;&lt;span style=&quot;color: #dadada;&quot;&gt;)&lt;/span&gt;&lt;span style=&quot;color: #b4b4b4;&quot;&gt;;&lt;/span&gt;&lt;/font&gt;&lt;/div&gt;&lt;font size=&quot;3&quot;&gt;&lt;br&gt;&lt;/font&gt;&lt;div style=&quot;&quot;&gt;&lt;font size=&quot;3&quot;&gt;&lt;span style=&quot;color: #dcdcaa;&quot;&gt;connectDB&lt;/span&gt;&lt;span style=&quot;color: #dadada;&quot;&gt;()&lt;/span&gt;&lt;/font&gt;&lt;/div&gt;&lt;div style=&quot;&quot;&gt;&lt;font size=&quot;3&quot;&gt;&lt;span style=&quot;color: #dadada;&quot;&gt;&amp;nbsp; &lt;/span&gt;&lt;span style=&quot;color: #b4b4b4;&quot;&gt;.&lt;/span&gt;&lt;span style=&quot;color: #dcdcaa;&quot;&gt;then&lt;/span&gt;&lt;span style=&quot;color: #dadada;&quot;&gt;(&lt;/span&gt;&lt;span style=&quot;color: #b4b4b4;&quot;&gt;()&lt;/span&gt;&lt;span style=&quot;color: #dadada;&quot;&gt; &lt;/span&gt;&lt;span style=&quot;color: #569cd6;&quot;&gt;=&amp;gt;&lt;/span&gt;&lt;span style=&quot;color: #dadada;&quot;&gt; &lt;/span&gt;&lt;span style=&quot;color: #b4b4b4;&quot;&gt;{&lt;/span&gt;&lt;/font&gt;&lt;/div&gt;&lt;div style=&quot;&quot;&gt;&lt;font size=&quot;3&quot;&gt;&lt;span style=&quot;color: #dadada;&quot;&gt;&amp;nbsp; &amp;nbsp; &lt;/span&gt;&lt;span style=&quot;color: #9cdcfe;&quot;&gt;console&lt;/span&gt;&lt;span style=&quot;color: #b4b4b4;&quot;&gt;.&lt;/span&gt;&lt;span style=&quot;color: #dcdcaa;&quot;&gt;log&lt;/span&gt;&lt;span style=&quot;color: #dadada;&quot;&gt;(&lt;/span&gt;&lt;span style=&quot;color: #e8c9bb;&quot;&gt;&quot;&lt;/span&gt;&lt;span style=&quot;color: #ce9178;&quot;&gt;Connected to the database&lt;/span&gt;&lt;span style=&quot;color: #e8c9bb;&quot;&gt;&quot;&lt;/span&gt;&lt;span style=&quot;color: #dadada;&quot;&gt;)&lt;/span&gt;&lt;span style=&quot;color: #b4b4b4;&quot;&gt;;&lt;/span&gt;&lt;/font&gt;&lt;/div&gt;&lt;div style=&quot;&quot;&gt;&lt;font size=&quot;3&quot;&gt;&lt;span style=&quot;color: #dadada;&quot;&gt;&amp;nbsp; &amp;nbsp; &lt;/span&gt;&lt;span style=&quot;color: #c8c8c8;&quot;&gt;app&lt;/span&gt;&lt;span style=&quot;color: #b4b4b4;&quot;&gt;.&lt;/span&gt;&lt;span style=&quot;color: #dcdcaa;&quot;&gt;listen&lt;/span&gt;&lt;span style=&quot;color: #dadada;&quot;&gt;(&lt;/span&gt;&lt;span style=&quot;color: #b5cea8;&quot;&gt;4000&lt;/span&gt;&lt;span style=&quot;color: #b4b4b4;&quot;&gt;,&lt;/span&gt;&lt;span style=&quot;color: #dadada;&quot;&gt; &lt;/span&gt;&lt;span style=&quot;color: #b4b4b4;&quot;&gt;()&lt;/span&gt;&lt;span style=&quot;color: #dadada;&quot;&gt; &lt;/span&gt;&lt;span style=&quot;color: #569cd6;&quot;&gt;=&amp;gt;&lt;/span&gt;&lt;span style=&quot;color: #dadada;&quot;&gt; &lt;/span&gt;&lt;span style=&quot;color: #b4b4b4;&quot;&gt;{&lt;/span&gt;&lt;/font&gt;&lt;/div&gt;&lt;div style=&quot;&quot;&gt;&lt;font size=&quot;3&quot;&gt;&lt;span style=&quot;color: #dadada;&quot;&gt;&amp;nbsp; &amp;nbsp; &amp;nbsp; &lt;/span&gt;&lt;span style=&quot;color: #9cdcfe;&quot;&gt;console&lt;/span&gt;&lt;span style=&quot;color: #b4b4b4;&quot;&gt;.&lt;/span&gt;&lt;span style=&quot;color: #dcdcaa;&quot;&gt;log&lt;/span&gt;&lt;span style=&quot;color: #dadada;&quot;&gt;(&lt;/span&gt;&lt;span style=&quot;color: #e8c9bb;&quot;&gt;&quot;&lt;/span&gt;&lt;span style=&quot;color: #ce9178;&quot;&gt;Server is running on port 4000&lt;/span&gt;&lt;span style=&quot;color: #e8c9bb;&quot;&gt;&quot;&lt;/span&gt;&lt;span style=&quot;color: #dadada;&quot;&gt;)&lt;/span&gt;&lt;span style=&quot;color: #b4b4b4;&quot;&gt;;&lt;/span&gt;&lt;/font&gt;&lt;/div&gt;&lt;div style=&quot;&quot;&gt;&lt;font size=&quot;3&quot;&gt;&lt;span style=&quot;color: #dadada;&quot;&gt;&amp;nbsp; &amp;nbsp; &lt;/span&gt;&lt;span style=&quot;color: #b4b4b4;&quot;&gt;}&lt;/span&gt;&lt;span style=&quot;color: #dadada;&quot;&gt;)&lt;/span&gt;&lt;span style=&quot;color: #b4b4b4;&quot;&gt;;&lt;/span&gt;&lt;/font&gt;&lt;/div&gt;&lt;div style=&quot;&quot;&gt;&lt;font size=&quot;3&quot;&gt;&lt;span style=&quot;color: #dadada;&quot;&gt;&amp;nbsp; &lt;/span&gt;&lt;span style=&quot;color: #b4b4b4;&quot;&gt;}&lt;/span&gt;&lt;span style=&quot;color: #dadada;&quot;&gt;)&lt;/span&gt;&lt;/font&gt;&lt;/div&gt;&lt;font size=&quot;3&quot;&gt;&lt;br&gt;&lt;/font&gt;&lt;div style=&quot;&quot;&gt;&lt;font size=&quot;3&quot;&gt;&lt;span style=&quot;color: #dadada;&quot;&gt;&amp;nbsp; &lt;/span&gt;&lt;span style=&quot;color: #b4b4b4;&quot;&gt;.&lt;/span&gt;&lt;span style=&quot;color: #dcdcaa;&quot;&gt;catch&lt;/span&gt;&lt;span style=&quot;color: #dadada;&quot;&gt;(&lt;/span&gt;&lt;span style=&quot;color: #b4b4b4;&quot;&gt;()&lt;/span&gt;&lt;span style=&quot;color: #dadada;&quot;&gt; &lt;/span&gt;&lt;span style=&quot;color: #569cd6;&quot;&gt;=&amp;gt;&lt;/span&gt;&lt;span style=&quot;color: #dadada;&quot;&gt; &lt;/span&gt;&lt;span style=&quot;color: #b4b4b4;&quot;&gt;{&lt;/span&gt;&lt;/font&gt;&lt;/div&gt;&lt;div style=&quot;&quot;&gt;&lt;font size=&quot;3&quot;&gt;&lt;span style=&quot;color: #dadada;&quot;&gt;&amp;nbsp; &amp;nbsp; &lt;/span&gt;&lt;span style=&quot;color: #9cdcfe;&quot;&gt;console&lt;/span&gt;&lt;span style=&quot;color: #b4b4b4;&quot;&gt;.&lt;/span&gt;&lt;span style=&quot;color: #dcdcaa;&quot;&gt;log&lt;/span&gt;&lt;span style=&quot;color: #dadada;&quot;&gt;(&lt;/span&gt;&lt;span style=&quot;color: #e8c9bb;&quot;&gt;&quot;&lt;/span&gt;&lt;span style=&quot;color: #ce9178;&quot;&gt;Error connecting to the database&lt;/span&gt;&lt;span style=&quot;color: #e8c9bb;&quot;&gt;&quot;&lt;/span&gt;&lt;span style=&quot;color: #dadada;&quot;&gt;)&lt;/span&gt;&lt;span style=&quot;color: #b4b4b4;&quot;&gt;;&lt;/span&gt;&lt;/font&gt;&lt;/div&gt;&lt;div style=&quot;&quot;&gt;&lt;font size=&quot;3&quot;&gt;&lt;span style=&quot;color: #dadada;&quot;&gt;&amp;nbsp; &lt;/span&gt;&lt;span style=&quot;color: #b4b4b4;&quot;&gt;}&lt;/span&gt;&lt;span style=&quot;color: #dadada;&quot;&gt;)&lt;/span&gt;&lt;span style=&quot;color: #b4b4b4;&quot;&gt;;&lt;/span&gt;&lt;/font&gt;&lt;/div&gt;&lt;br&gt;&lt;/div&gt;" style="text;whiteSpace=wrap;html=1;fontSize=48;" vertex="1" parent="1">
                    <mxGeometry x="-760" y="1500" width="610" height="940" as="geometry"/>
                </mxCell>
                <mxCell id="15" value="&lt;h1&gt;&lt;font style=&quot;font-size: 72px;&quot;&gt;&lt;u style=&quot;&quot;&gt;App.js&lt;/u&gt;&lt;/font&gt;&lt;/h1&gt;" style="text;html=1;strokeColor=none;fillColor=none;spacing=5;spacingTop=-20;whiteSpace=wrap;overflow=hidden;rounded=0;fontSize=24;" vertex="1" parent="1">
                    <mxGeometry x="-600" y="1370" width="240" height="130" as="geometry"/>
                </mxCell>
                <mxCell id="17" value="" style="shape=flexArrow;endArrow=classic;html=1;fontSize=48;width=22.22222222222222;endSize=26.466666666666665;exitX=0.304;exitY=1.012;exitDx=0;exitDy=0;exitPerimeter=0;endWidth=8.395061728395063;entryX=-0.002;entryY=0.061;entryDx=0;entryDy=0;entryPerimeter=0;" edge="1" parent="1" source="12" target="14">
                    <mxGeometry width="50" height="50" relative="1" as="geometry">
                        <mxPoint x="-1440" y="1860" as="sourcePoint"/>
                        <mxPoint x="-870" y="1700" as="targetPoint"/>
                        <Array as="points">
                            <mxPoint x="-950" y="1440"/>
                            <mxPoint x="-850" y="1427"/>
                        </Array>
                    </mxGeometry>
                </mxCell>
                <mxCell id="18" value="&lt;div style=&quot;color: rgb(218, 218, 218); background-color: rgb(30, 30, 30); font-family: Consolas, &amp;quot;Courier New&amp;quot;, monospace; font-weight: normal; line-height: 19px;&quot;&gt;&lt;div style=&quot;&quot;&gt;&lt;font style=&quot;font-size: 36px;&quot;&gt;&lt;span style=&quot;color: rgb(86, 156, 214);&quot;&gt;const&lt;/span&gt;&lt;span style=&quot;color: rgb(218, 218, 218);&quot;&gt; &lt;/span&gt;&lt;span style=&quot;color: rgb(78, 201, 176);&quot;&gt;mongoose&lt;/span&gt;&lt;span style=&quot;color: rgb(218, 218, 218);&quot;&gt; &lt;/span&gt;&lt;span style=&quot;color: rgb(180, 180, 180);&quot;&gt;=&lt;/span&gt;&lt;span style=&quot;color: rgb(218, 218, 218);&quot;&gt; &lt;/span&gt;&lt;span style=&quot;color: rgb(220, 220, 170);&quot;&gt;require&lt;/span&gt;&lt;span style=&quot;color: rgb(218, 218, 218);&quot;&gt;(&lt;/span&gt;&lt;span style=&quot;color: rgb(232, 201, 187);&quot;&gt;&quot;&lt;/span&gt;&lt;span style=&quot;color: rgb(206, 145, 120);&quot;&gt;mongoose&lt;/span&gt;&lt;span style=&quot;color: rgb(232, 201, 187);&quot;&gt;&quot;&lt;/span&gt;&lt;span style=&quot;color: rgb(218, 218, 218);&quot;&gt;)&lt;/span&gt;&lt;span style=&quot;color: rgb(180, 180, 180);&quot;&gt;;&lt;/span&gt;&lt;/font&gt;&lt;/div&gt;&lt;font size=&quot;3&quot;&gt;&lt;br&gt;&lt;/font&gt;&lt;div style=&quot;&quot;&gt;&lt;font size=&quot;3&quot;&gt;&lt;span style=&quot;color: #569cd6;&quot;&gt;const&lt;/span&gt;&lt;span style=&quot;color: #dadada;&quot;&gt; &lt;/span&gt;&lt;span style=&quot;color: #c8c8c8;&quot;&gt;userSchema&lt;/span&gt;&lt;span style=&quot;color: #dadada;&quot;&gt; &lt;/span&gt;&lt;span style=&quot;color: #b4b4b4;&quot;&gt;=&lt;/span&gt;&lt;span style=&quot;color: #dadada;&quot;&gt; &lt;/span&gt;&lt;span style=&quot;color: #569cd6;&quot;&gt;new&lt;/span&gt;&lt;span style=&quot;color: #dadada;&quot;&gt; &lt;/span&gt;&lt;span style=&quot;color: #4ec9b0;&quot;&gt;mongoose&lt;/span&gt;&lt;span style=&quot;color: #b4b4b4;&quot;&gt;.&lt;/span&gt;&lt;span style=&quot;color: #4ec9b0;&quot;&gt;Schema&lt;/span&gt;&lt;span style=&quot;color: #dadada;&quot;&gt;(&lt;/span&gt;&lt;span style=&quot;color: #b4b4b4;&quot;&gt;{&lt;/span&gt;&lt;/font&gt;&lt;/div&gt;&lt;div style=&quot;&quot;&gt;&lt;font size=&quot;3&quot;&gt;&lt;span style=&quot;color: #dadada;&quot;&gt;&amp;nbsp; &lt;/span&gt;&lt;span style=&quot;color: #dadada;&quot;&gt;firstName&lt;/span&gt;&lt;span style=&quot;color: #b4b4b4;&quot;&gt;:&lt;/span&gt;&lt;span style=&quot;color: #dadada;&quot;&gt; &lt;/span&gt;&lt;span style=&quot;color: #b4b4b4;&quot;&gt;{&lt;/span&gt;&lt;/font&gt;&lt;/div&gt;&lt;div style=&quot;&quot;&gt;&lt;font size=&quot;3&quot;&gt;&lt;span style=&quot;color: #dadada;&quot;&gt;&amp;nbsp; &amp;nbsp; &lt;/span&gt;&lt;span style=&quot;color: #4ec9b0;&quot;&gt;type&lt;/span&gt;&lt;span style=&quot;color: #b4b4b4;&quot;&gt;:&lt;/span&gt;&lt;span style=&quot;color: #dadada;&quot;&gt; &lt;/span&gt;&lt;span style=&quot;color: #4ec9b0;&quot;&gt;String&lt;/span&gt;&lt;span style=&quot;color: #b4b4b4;&quot;&gt;,&lt;/span&gt;&lt;/font&gt;&lt;/div&gt;&lt;div style=&quot;&quot;&gt;&lt;font size=&quot;3&quot;&gt;&lt;span style=&quot;color: #dadada;&quot;&gt;&amp;nbsp; &lt;/span&gt;&lt;span style=&quot;color: #b4b4b4;&quot;&gt;},&lt;/span&gt;&lt;/font&gt;&lt;/div&gt;&lt;div style=&quot;&quot;&gt;&lt;font size=&quot;3&quot;&gt;&lt;span style=&quot;color: #dadada;&quot;&gt;&amp;nbsp; &lt;/span&gt;&lt;span style=&quot;color: #dadada;&quot;&gt;lastName&lt;/span&gt;&lt;span style=&quot;color: #b4b4b4;&quot;&gt;:&lt;/span&gt;&lt;span style=&quot;color: #dadada;&quot;&gt; &lt;/span&gt;&lt;span style=&quot;color: #b4b4b4;&quot;&gt;{&lt;/span&gt;&lt;/font&gt;&lt;/div&gt;&lt;div style=&quot;&quot;&gt;&lt;font size=&quot;3&quot;&gt;&lt;span style=&quot;color: #dadada;&quot;&gt;&amp;nbsp; &amp;nbsp; &lt;/span&gt;&lt;span style=&quot;color: #4ec9b0;&quot;&gt;type&lt;/span&gt;&lt;span style=&quot;color: #b4b4b4;&quot;&gt;:&lt;/span&gt;&lt;span style=&quot;color: #dadada;&quot;&gt; &lt;/span&gt;&lt;span style=&quot;color: #4ec9b0;&quot;&gt;String&lt;/span&gt;&lt;span style=&quot;color: #b4b4b4;&quot;&gt;,&lt;/span&gt;&lt;/font&gt;&lt;/div&gt;&lt;div style=&quot;&quot;&gt;&lt;font size=&quot;3&quot;&gt;&lt;span style=&quot;color: #dadada;&quot;&gt;&amp;nbsp; &lt;/span&gt;&lt;span style=&quot;color: #b4b4b4;&quot;&gt;},&lt;/span&gt;&lt;/font&gt;&lt;/div&gt;&lt;div style=&quot;&quot;&gt;&lt;font size=&quot;3&quot;&gt;&lt;span style=&quot;color: #dadada;&quot;&gt;&amp;nbsp; &lt;/span&gt;&lt;span style=&quot;color: #dadada;&quot;&gt;email&lt;/span&gt;&lt;span style=&quot;color: #b4b4b4;&quot;&gt;:&lt;/span&gt;&lt;span style=&quot;color: #dadada;&quot;&gt; &lt;/span&gt;&lt;span style=&quot;color: #b4b4b4;&quot;&gt;{&lt;/span&gt;&lt;/font&gt;&lt;/div&gt;&lt;div style=&quot;&quot;&gt;&lt;font size=&quot;3&quot;&gt;&lt;span style=&quot;color: #dadada;&quot;&gt;&amp;nbsp; &amp;nbsp; &lt;/span&gt;&lt;span style=&quot;color: #4ec9b0;&quot;&gt;type&lt;/span&gt;&lt;span style=&quot;color: #b4b4b4;&quot;&gt;:&lt;/span&gt;&lt;span style=&quot;color: #dadada;&quot;&gt; &lt;/span&gt;&lt;span style=&quot;color: #4ec9b0;&quot;&gt;String&lt;/span&gt;&lt;span style=&quot;color: #b4b4b4;&quot;&gt;,&lt;/span&gt;&lt;/font&gt;&lt;/div&gt;&lt;div style=&quot;&quot;&gt;&lt;font size=&quot;3&quot;&gt;&lt;span style=&quot;color: #dadada;&quot;&gt;&amp;nbsp; &lt;/span&gt;&lt;span style=&quot;color: #b4b4b4;&quot;&gt;},&lt;/span&gt;&lt;/font&gt;&lt;/div&gt;&lt;div style=&quot;&quot;&gt;&lt;font size=&quot;3&quot;&gt;&lt;span style=&quot;color: #dadada;&quot;&gt;&amp;nbsp; &lt;/span&gt;&lt;span style=&quot;color: #dadada;&quot;&gt;password&lt;/span&gt;&lt;span style=&quot;color: #b4b4b4;&quot;&gt;:&lt;/span&gt;&lt;span style=&quot;color: #dadada;&quot;&gt; &lt;/span&gt;&lt;span style=&quot;color: #b4b4b4;&quot;&gt;{&lt;/span&gt;&lt;/font&gt;&lt;/div&gt;&lt;div style=&quot;&quot;&gt;&lt;font size=&quot;3&quot;&gt;&lt;span style=&quot;color: #dadada;&quot;&gt;&amp;nbsp; &amp;nbsp; &lt;/span&gt;&lt;span style=&quot;color: #4ec9b0;&quot;&gt;type&lt;/span&gt;&lt;span style=&quot;color: #b4b4b4;&quot;&gt;:&lt;/span&gt;&lt;span style=&quot;color: #dadada;&quot;&gt; &lt;/span&gt;&lt;span style=&quot;color: #4ec9b0;&quot;&gt;String&lt;/span&gt;&lt;span style=&quot;color: #b4b4b4;&quot;&gt;,&lt;/span&gt;&lt;/font&gt;&lt;/div&gt;&lt;div style=&quot;&quot;&gt;&lt;font size=&quot;3&quot;&gt;&lt;span style=&quot;color: #dadada;&quot;&gt;&amp;nbsp; &lt;/span&gt;&lt;span style=&quot;color: #b4b4b4;&quot;&gt;},&lt;/span&gt;&lt;/font&gt;&lt;/div&gt;&lt;div style=&quot;&quot;&gt;&lt;font size=&quot;3&quot;&gt;&lt;span style=&quot;color: #dadada;&quot;&gt;&amp;nbsp; &lt;/span&gt;&lt;span style=&quot;color: #dadada;&quot;&gt;age&lt;/span&gt;&lt;span style=&quot;color: #b4b4b4;&quot;&gt;:&lt;/span&gt;&lt;span style=&quot;color: #dadada;&quot;&gt; &lt;/span&gt;&lt;span style=&quot;color: #b4b4b4;&quot;&gt;{&lt;/span&gt;&lt;/font&gt;&lt;/div&gt;&lt;div style=&quot;&quot;&gt;&lt;font size=&quot;3&quot;&gt;&lt;span style=&quot;color: #dadada;&quot;&gt;&amp;nbsp; &amp;nbsp; &lt;/span&gt;&lt;span style=&quot;color: #4ec9b0;&quot;&gt;type&lt;/span&gt;&lt;span style=&quot;color: #b4b4b4;&quot;&gt;:&lt;/span&gt;&lt;span style=&quot;color: #dadada;&quot;&gt; &lt;/span&gt;&lt;span style=&quot;color: #4ec9b0;&quot;&gt;Number&lt;/span&gt;&lt;span style=&quot;color: #b4b4b4;&quot;&gt;,&lt;/span&gt;&lt;/font&gt;&lt;/div&gt;&lt;div style=&quot;&quot;&gt;&lt;font size=&quot;3&quot;&gt;&lt;span style=&quot;color: #dadada;&quot;&gt;&amp;nbsp; &lt;/span&gt;&lt;span style=&quot;color: #b4b4b4;&quot;&gt;},&lt;/span&gt;&lt;/font&gt;&lt;/div&gt;&lt;div style=&quot;&quot;&gt;&lt;font size=&quot;3&quot;&gt;&lt;span style=&quot;color: #b4b4b4;&quot;&gt;}&lt;/span&gt;&lt;span style=&quot;color: #dadada;&quot;&gt;)&lt;/span&gt;&lt;span style=&quot;color: #b4b4b4;&quot;&gt;;&lt;/span&gt;&lt;/font&gt;&lt;/div&gt;&lt;font size=&quot;3&quot;&gt;&lt;br&gt;&lt;/font&gt;&lt;div style=&quot;&quot;&gt;&lt;font size=&quot;3&quot;&gt;&lt;span style=&quot;color: #4ec9b0;&quot;&gt;module&lt;/span&gt;&lt;span style=&quot;color: #b4b4b4;&quot;&gt;.&lt;/span&gt;&lt;span style=&quot;color: #4ec9b0;&quot;&gt;exports&lt;/span&gt;&lt;span style=&quot;color: #dadada;&quot;&gt; &lt;/span&gt;&lt;span style=&quot;color: #b4b4b4;&quot;&gt;=&lt;/span&gt;&lt;span style=&quot;color: #dadada;&quot;&gt; &lt;/span&gt;&lt;span style=&quot;color: #4ec9b0;&quot;&gt;mongoose&lt;/span&gt;&lt;span style=&quot;color: #b4b4b4;&quot;&gt;.&lt;/span&gt;&lt;span style=&quot;color: #dcdcaa;&quot;&gt;model&lt;/span&gt;&lt;span style=&quot;color: #dadada;&quot;&gt;(&lt;/span&gt;&lt;span style=&quot;color: #e8c9bb;&quot;&gt;&quot;&lt;/span&gt;&lt;span style=&quot;color: #ce9178;&quot;&gt;User&lt;/span&gt;&lt;span style=&quot;color: #e8c9bb;&quot;&gt;&quot;&lt;/span&gt;&lt;span style=&quot;color: #b4b4b4;&quot;&gt;,&lt;/span&gt;&lt;span style=&quot;color: #dadada;&quot;&gt; &lt;/span&gt;&lt;span style=&quot;color: #c8c8c8;&quot;&gt;userSchema&lt;/span&gt;&lt;span style=&quot;color: #dadada;&quot;&gt;)&lt;/span&gt;&lt;span style=&quot;color: #b4b4b4;&quot;&gt;;&lt;/span&gt;&lt;/font&gt;&lt;/div&gt;&lt;br&gt;&lt;/div&gt;" style="text;whiteSpace=wrap;html=1;fontSize=48;" vertex="1" parent="1">
                    <mxGeometry x="-1670" y="1490" width="530" height="710" as="geometry"/>
                </mxCell>
                <mxCell id="20" value="" style="shape=flexArrow;endArrow=classic;html=1;fontSize=36;entryX=-0.005;entryY=0.097;entryDx=0;entryDy=0;entryPerimeter=0;" edge="1" parent="1" source="18" target="14">
                    <mxGeometry width="50" height="50" relative="1" as="geometry">
                        <mxPoint x="-1050" y="1610" as="sourcePoint"/>
                        <mxPoint x="-1000" y="1560" as="targetPoint"/>
                        <Array as="points">
                            <mxPoint x="-1040" y="1670"/>
                        </Array>
                    </mxGeometry>
                </mxCell>
                <mxCell id="21" value="" style="shape=cylinder3;whiteSpace=wrap;html=1;boundedLbl=1;backgroundOutline=1;size=15;fontSize=36;fillColor=none;" vertex="1" parent="1">
                    <mxGeometry x="130" y="1270" width="250" height="280" as="geometry"/>
                </mxCell>
                <mxCell id="22" value="" style="shape=cylinder3;whiteSpace=wrap;html=1;boundedLbl=1;backgroundOutline=1;size=15;fontSize=36;fillColor=none;" vertex="1" parent="1">
                    <mxGeometry x="510" y="1620" width="250" height="330" as="geometry"/>
                </mxCell>
                <mxCell id="23" value="&lt;h1&gt;Server&lt;/h1&gt;" style="text;html=1;strokeColor=none;fillColor=none;spacing=5;spacingTop=-20;whiteSpace=wrap;overflow=hidden;rounded=0;fontSize=36;" vertex="1" parent="1">
                    <mxGeometry x="130" y="1340" width="270" height="120" as="geometry"/>
                </mxCell>
                <mxCell id="24" value="&lt;font style=&quot;font-size: 72px;&quot;&gt;DB&lt;/font&gt;" style="text;html=1;strokeColor=none;fillColor=none;spacing=5;spacingTop=-20;whiteSpace=wrap;overflow=hidden;rounded=0;fontSize=36;" vertex="1" parent="1">
                    <mxGeometry x="580" y="1760" width="190" height="120" as="geometry"/>
                </mxCell>
                <mxCell id="25" value="" style="rounded=1;whiteSpace=wrap;html=1;fontSize=72;fillColor=none;" vertex="1" parent="1">
                    <mxGeometry x="-780" y="1640" width="520" height="340" as="geometry"/>
                </mxCell>
                <mxCell id="26" value="" style="shape=flexArrow;endArrow=classic;html=1;fontSize=72;endWidth=116.66666666666667;endSize=33.1;width=43.333333333333336;" edge="1" parent="1">
                    <mxGeometry width="50" height="50" relative="1" as="geometry">
                        <mxPoint x="-260" y="1755" as="sourcePoint"/>
                        <mxPoint x="120" y="1460" as="targetPoint"/>
                    </mxGeometry>
                </mxCell>
                <mxCell id="27" value="" style="shape=flexArrow;endArrow=classic;html=1;fontSize=72;width=53.333333333333336;endSize=24.400000000000002;entryX=0;entryY=0.5;entryDx=0;entryDy=0;entryPerimeter=0;" edge="1" parent="1" source="21" target="22">
                    <mxGeometry width="50" height="50" relative="1" as="geometry">
                        <mxPoint x="170" y="2150" as="sourcePoint"/>
                        <mxPoint x="720" y="2120" as="targetPoint"/>
                        <Array as="points">
                            <mxPoint x="280" y="1980"/>
                        </Array>
                    </mxGeometry>
                </mxCell>
                <mxCell id="28" value="new User saved&amp;nbsp;" style="shape=callout;whiteSpace=wrap;html=1;perimeter=calloutPerimeter;fontSize=72;fillColor=none;" vertex="1" parent="1">
                    <mxGeometry x="520" y="1400" width="330" height="200" as="geometry"/>
                </mxCell>
            </root>
        </mxGraphModel>
    </diagram>
</mxfile>